<svg class="main-svg" xmlns="http://www.w3.org/2000/svg" xmlns:xlink="http://www.w3.org/1999/xlink" width="1100" height="800" style="" viewBox="0 0 1100 800"><rect x="0" y="0" width="1100" height="800" style="fill: rgb(255, 255, 255); fill-opacity: 1;"/><defs id="defs-8211f4"><g class="clips"><clipPath id="clip8211f4xyplot" class="plotclip"><rect width="1002" height="800"/></clipPath><clipPath class="axesclip" id="clip8211f4x"><rect x="0" y="0" width="1002" height="800"/></clipPath><clipPath class="axesclip" id="clip8211f4y"><rect x="0" y="0" width="1100" height="800"/></clipPath><clipPath class="axesclip" id="clip8211f4xy"><rect x="0" y="0" width="1002" height="800"/></clipPath></g><g class="gradients"><linearGradient x1="0" y1="1" x2="0" y2="0" gradientUnits="objectBoundingBox" id="g8211f4-cbcoloraxis"><stop offset="0%" stop-color="rgb(0, 0, 4)" stop-opacity="1"/><stop offset="11.111111%" stop-color="rgb(24, 15, 61)" stop-opacity="1"/><stop offset="22.222222%" stop-color="rgb(68, 15, 118)" stop-opacity="1"/><stop offset="33.333333%" stop-color="rgb(114, 31, 129)" stop-opacity="1"/><stop offset="44.444444%" stop-color="rgb(158, 47, 127)" stop-opacity="1"/><stop offset="55.555556%" stop-color="rgb(205, 64, 113)" stop-opacity="1"/><stop offset="66.666667%" stop-color="rgb(241, 96, 93)" stop-opacity="1"/><stop offset="77.777778%" stop-color="rgb(253, 150, 104)" stop-opacity="1"/><stop offset="88.888889%" stop-color="rgb(254, 202, 141)" stop-opacity="1"/><stop offset="100%" stop-color="rgb(252, 253, 191)" stop-opacity="1"/></linearGradient></g><g class="patterns"/></defs><g class="bglayer"><rect class="bg" x="0" y="0" width="1002" height="800" style="fill: rgb(229, 236, 246); fill-opacity: 1; stroke-width: 0;"/></g><g class="layer-below"><g class="imagelayer"/><g class="shapelayer"/></g><g class="cartesianlayer"><g class="subplot xy"><g class="layer-subplot"><g class="shapelayer"/><g class="imagelayer"/></g><g class="minor-gridlayer"><g class="x"/><g class="y"/></g><g class="gridlayer"><g class="x"/><g class="y"/></g><g class="zerolinelayer"/><g class="layer-between"><g class="shapelayer"/><g class="imagelayer"/></g><path class="xlines-below"/><path class="ylines-below"/><g class="overlines-below"/><g class="xaxislayer-below"/><g class="yaxislayer-below"/><g class="overaxes-below"/><g class="overplot"><g class="xy" transform="" clip-path="url(#clip8211f4xyplot)"><g class="scatterlayer mlayer"><g class="trace scatter trace5bdc60" style="stroke-miterlimit: 2; opacity: 1;"><g class="fills"/><g class="errorbars"/><g class="lines"/><g class="points"><path class="point" transform="translate(455.65,385.46)" d="M62.56,0A62.56,62.56 0 1,1 0,-62.56A62.56,62.56 0 0,1 62.56,0Z" style="opacity: 0.5; stroke-width: 0px; fill: rgb(253, 160, 111); fill-opacity: 1;"/><path class="point" transform="translate(258.6,470.81)" d="M70.63,0A70.63,70.63 0 1,1 0,-70.63A70.63,70.63 0 0,1 70.63,0Z" style="opacity: 0.5; stroke-width: 0px; fill: rgb(252, 253, 191); fill-opacity: 1;"/><path class="point" transform="translate(596.34,584.77)" d="M69.54,0A69.54,69.54 0 1,1 0,-69.54A69.54,69.54 0 0,1 69.54,0Z" style="opacity: 0.5; stroke-width: 0px; fill: rgb(59, 15, 107); fill-opacity: 1;"/><path class="point" transform="translate(411,594.86)" d="M59.92,0A59.92,59.92 0 1,1 0,-59.92A59.92,59.92 0 0,1 59.92,0Z" style="opacity: 0.5; stroke-width: 0px; fill: rgb(253, 160, 111); fill-opacity: 1;"/><path class="point" transform="translate(556.95,529.71)" d="M70.46,0A70.46,70.46 0 1,1 0,-70.46A70.46,70.46 0 0,1 70.46,0Z" style="opacity: 0.5; stroke-width: 0px; fill: rgb(140, 41, 128); fill-opacity: 1;"/><path class="point" transform="translate(452.27,701.06)" d="M52.72,0A52.72,52.72 0 1,1 0,-52.72A52.72,52.72 0 0,1 52.72,0Z" style="opacity: 0.5; stroke-width: 0px; fill: rgb(219, 77, 105); fill-opacity: 1;"/><path class="point" transform="translate(460.81,593.07)" d="M66.84,0A66.84,66.84 0 1,1 0,-66.84A66.84,66.84 0 0,1 66.84,0Z" style="opacity: 0.5; stroke-width: 0px; fill: rgb(253, 160, 111); fill-opacity: 1;"/><path class="point" transform="translate(671.69,474.55)" d="M66.27,0A66.27,66.27 0 1,1 0,-66.27A66.27,66.27 0 0,1 66.27,0Z" style="opacity: 0.5; stroke-width: 0px; fill: rgb(0, 0, 4); fill-opacity: 1;"/><path class="point" transform="translate(349.73,483.1)" d="M62.62,0A62.62,62.62 0 1,1 0,-62.62A62.62,62.62 0 0,1 62.62,0Z" style="opacity: 0.5; stroke-width: 0px; fill: rgb(252, 253, 191); fill-opacity: 1;"/><path class="point" transform="translate(695.88,486.66)" d="M62.15,0A62.15,62.15 0 1,1 0,-62.15A62.15,62.15 0 0,1 62.15,0Z" style="opacity: 0.5; stroke-width: 0px; fill: rgb(219, 77, 105); fill-opacity: 1;"/><path class="point" transform="translate(383.23,462.56)" d="M68.54,0A68.54,68.54 0 1,1 0,-68.54A68.54,68.54 0 0,1 68.54,0Z" style="opacity: 0.5; stroke-width: 0px; fill: rgb(253, 160, 111); fill-opacity: 1;"/><path class="point" transform="translate(478.05,490.99)" d="M56.32,0A56.32,56.32 0 1,1 0,-56.32A56.32,56.32 0 0,1 56.32,0Z" style="opacity: 0.5; stroke-width: 0px; fill: rgb(140, 41, 128); fill-opacity: 1;"/><path class="point" transform="translate(304.73,297.18)" d="M63.9,0A63.9,63.9 0 1,1 0,-63.9A63.9,63.9 0 0,1 63.9,0Z" style="opacity: 0.5; stroke-width: 0px; fill: rgb(252, 253, 191); fill-opacity: 1;"/><path class="point" transform="translate(895.47,400.59)" d="M50.47,0A50.47,50.47 0 1,1 0,-50.47A50.47,50.47 0 0,1 50.47,0Z" style="opacity: 0.5; stroke-width: 0px; fill: rgb(59, 15, 107); fill-opacity: 1;"/><path class="point" transform="translate(220.64,515.49)" d="M55.4,0A55.4,55.4 0 1,1 0,-55.4A55.4,55.4 0 0,1 55.4,0Z" style="opacity: 0.5; stroke-width: 0px; fill: rgb(253, 160, 111); fill-opacity: 1;"/><path class="point" transform="translate(296.26,381.77)" d="M67.19,0A67.19,67.19 0 1,1 0,-67.19A67.19,67.19 0 0,1 67.19,0Z" style="opacity: 0.5; stroke-width: 0px; fill: rgb(253, 160, 111); fill-opacity: 1;"/><path class="point" transform="translate(800.86,318.05)" d="M64.35,0A64.35,64.35 0 1,1 0,-64.35A64.35,64.35 0 0,1 64.35,0Z" style="opacity: 0.5; stroke-width: 0px; fill: rgb(140, 41, 128); fill-opacity: 1;"/><path class="point" transform="translate(798.86,363.7)" d="M59.49,0A59.49,59.49 0 1,1 0,-59.49A59.49,59.49 0 0,1 59.49,0Z" style="opacity: 0.5; stroke-width: 0px; fill: rgb(140, 41, 128); fill-opacity: 1;"/><path class="point" transform="translate(698.68,299.54)" d="M61.29,0A61.29,61.29 0 1,1 0,-61.29A61.29,61.29 0 0,1 61.29,0Z" style="opacity: 0.5; stroke-width: 0px; fill: rgb(219, 77, 105); fill-opacity: 1;"/><path class="point" transform="translate(347.97,269.39)" d="M49.87,0A49.87,49.87 0 1,1 0,-49.87A49.87,49.87 0 0,1 49.87,0Z" style="opacity: 0.5; stroke-width: 0px; fill: rgb(252, 253, 191); fill-opacity: 1;"/><path class="point" transform="translate(96.58,637)" d="M37.32,0A37.32,37.32 0 1,1 0,-37.32A37.32,37.32 0 0,1 37.32,0Z" style="opacity: 0.5; stroke-width: 0px; fill: rgb(252, 253, 191); fill-opacity: 1;"/><path class="point" transform="translate(325.1,527.6)" d="M70.71,0A70.71,70.71 0 1,1 0,-70.71A70.71,70.71 0 0,1 70.71,0Z" style="opacity: 0.5; stroke-width: 0px; fill: rgb(219, 77, 105); fill-opacity: 1;"/><path class="point" transform="translate(400.03,540.47)" d="M62.66,0A62.66,62.66 0 1,1 0,-62.66A62.66,62.66 0 0,1 62.66,0Z" style="opacity: 0.5; stroke-width: 0px; fill: rgb(252, 253, 191); fill-opacity: 1;"/><path class="point" transform="translate(290.65,585.42)" d="M47.76,0A47.76,47.76 0 1,1 0,-47.76A47.76,47.76 0 0,1 47.76,0Z" style="opacity: 0.5; stroke-width: 0px; fill: rgb(253, 160, 111); fill-opacity: 1;"/><path class="point" transform="translate(271.19,353.93)" d="M49.29,0A49.29,49.29 0 1,1 0,-49.29A49.29,49.29 0 0,1 49.29,0Z" style="opacity: 0.5; stroke-width: 0px; fill: rgb(252, 253, 191); fill-opacity: 1;"/><path class="point" transform="translate(229.52,390.32)" d="M65.11,0A65.11,65.11 0 1,1 0,-65.11A65.11,65.11 0 0,1 65.11,0Z" style="opacity: 0.5; stroke-width: 0px; fill: rgb(252, 253, 191); fill-opacity: 1;"/><path class="point" transform="translate(545.98,435.19)" d="M64.8,0A64.8,64.8 0 1,1 0,-64.8A64.8,64.8 0 0,1 64.8,0Z" style="opacity: 0.5; stroke-width: 0px; fill: rgb(59, 15, 107); fill-opacity: 1;"/><path class="point" transform="translate(94.06,442.78)" d="M39.32,0A39.32,39.32 0 1,1 0,-39.32A39.32,39.32 0 0,1 39.32,0Z" style="opacity: 0.5; stroke-width: 0px; fill: rgb(253, 160, 111); fill-opacity: 1;"/><path class="point" transform="translate(834.3,449.06)" d="M53.26,0A53.26,53.26 0 1,1 0,-53.26A53.26,53.26 0 0,1 53.26,0Z" style="opacity: 0.5; stroke-width: 0px; fill: rgb(0, 0, 4); fill-opacity: 1;"/><path class="point" transform="translate(349.26,85.35)" d="M40.56,0A40.56,40.56 0 1,1 0,-40.56A40.56,40.56 0 0,1 40.56,0Z" style="opacity: 0.5; stroke-width: 0px; fill: rgb(253, 160, 111); fill-opacity: 1;"/><path class="point" transform="translate(524.23,300.1)" d="M53.76,0A53.76,53.76 0 1,1 0,-53.76A53.76,53.76 0 0,1 53.76,0Z" style="opacity: 0.5; stroke-width: 0px; fill: rgb(253, 160, 111); fill-opacity: 1;"/><path class="point" transform="translate(269.32,80.74)" d="M22.44,0A22.44,22.44 0 1,1 0,-22.44A22.44,22.44 0 0,1 22.44,0Z" style="opacity: 0.5; stroke-width: 0px; fill: rgb(252, 253, 191); fill-opacity: 1;"/></g><g class="text"><g class="textpoint" transform="translate(0,3)"><text x="455.65" y="385.46" text-anchor="middle" style="font-family: 'Open Sans', verdana, arial, sans-serif; font-size: 12px; fill: rgb(0, 0, 0); fill-opacity: 1; white-space: pre;">skeuomorphic graphic adventures</text></g><g class="textpoint" transform="translate(0,3)"><text x="258.6" y="470.81" text-anchor="middle" style="font-family: 'Open Sans', verdana, arial, sans-serif; font-size: 12px; fill: rgb(0, 0, 0); fill-opacity: 1; white-space: pre;">historic fighting</text></g><g class="textpoint" transform="translate(0,3)"><text x="596.34" y="584.77" text-anchor="middle" style="font-family: 'Open Sans', verdana, arial, sans-serif; font-size: 12px; fill: rgb(0, 0, 0); fill-opacity: 1; white-space: pre;">tiles and mazes</text></g><g class="textpoint" transform="translate(0,3)"><text x="411" y="594.86" text-anchor="middle" style="font-family: 'Open Sans', verdana, arial, sans-serif; font-size: 12px; fill: rgb(0, 0, 0); fill-opacity: 1; white-space: pre;">space action</text></g><g class="textpoint" transform="translate(0,3)"><text x="556.95" y="529.71" text-anchor="middle" style="font-family: 'Open Sans', verdana, arial, sans-serif; font-size: 12px; fill: rgb(0, 0, 0); fill-opacity: 1; white-space: pre;">abstracted gameplay</text></g><g class="textpoint" transform="translate(0,3)"><text x="452.27" y="701.06" text-anchor="middle" style="font-family: 'Open Sans', verdana, arial, sans-serif; font-size: 12px; fill: rgb(0, 0, 0); fill-opacity: 1; white-space: pre;">maps</text></g><g class="textpoint" transform="translate(0,3)"><text x="460.81" y="593.07" text-anchor="middle" style="font-family: 'Open Sans', verdana, arial, sans-serif; font-size: 12px; fill: rgb(0, 0, 0); fill-opacity: 1; white-space: pre;">tile-based action</text></g><g class="textpoint" transform="translate(0,3)"><text x="671.69" y="474.55" text-anchor="middle" style="font-family: 'Open Sans', verdana, arial, sans-serif; font-size: 12px; fill: rgb(0, 0, 0); fill-opacity: 1; white-space: pre;">early action</text></g><g class="textpoint" transform="translate(0,3)"><text x="349.73" y="483.1" text-anchor="middle" style="font-family: 'Open Sans', verdana, arial, sans-serif; font-size: 12px; fill: rgb(0, 0, 0); fill-opacity: 1; white-space: pre;">rugged nature action</text></g><g class="textpoint" transform="translate(0,3)"><text x="695.88" y="486.66" text-anchor="middle" style="font-family: 'Open Sans', verdana, arial, sans-serif; font-size: 12px; fill: rgb(0, 0, 0); fill-opacity: 1; white-space: pre;">HUDs with text</text></g><g class="textpoint" transform="translate(0,3)"><text x="383.23" y="462.56" text-anchor="middle" style="font-family: 'Open Sans', verdana, arial, sans-serif; font-size: 12px; fill: rgb(0, 0, 0); fill-opacity: 1; white-space: pre;">pre-historic adventures</text></g><g class="textpoint" transform="translate(0,3)"><text x="478.05" y="490.99" text-anchor="middle" style="font-family: 'Open Sans', verdana, arial, sans-serif; font-size: 12px; fill: rgb(0, 0, 0); fill-opacity: 1; white-space: pre;">vectorized POV</text></g><g class="textpoint" transform="translate(0,3)"><text x="304.73" y="297.18" text-anchor="middle" style="font-family: 'Open Sans', verdana, arial, sans-serif; font-size: 12px; fill: rgb(0, 0, 0); fill-opacity: 1; white-space: pre;">menacing title screens</text></g><g class="textpoint" transform="translate(0,3)"><text x="895.47" y="400.59" text-anchor="middle" style="font-family: 'Open Sans', verdana, arial, sans-serif; font-size: 12px; fill: rgb(0, 0, 0); fill-opacity: 1; white-space: pre;">simple text</text></g><g class="textpoint" transform="translate(0,3)"><text x="220.64" y="515.49" text-anchor="middle" style="font-family: 'Open Sans', verdana, arial, sans-serif; font-size: 12px; fill: rgb(0, 0, 0); fill-opacity: 1; white-space: pre;">graphic adventures</text></g><g class="textpoint" transform="translate(0,3)"><text x="296.26" y="381.77" text-anchor="middle" style="font-family: 'Open Sans', verdana, arial, sans-serif; font-size: 12px; fill: rgb(0, 0, 0); fill-opacity: 1; white-space: pre;">exploring nature</text></g><g class="textpoint" transform="translate(0,3)"><text x="800.86" y="318.05" text-anchor="middle" style="font-family: 'Open Sans', verdana, arial, sans-serif; font-size: 12px; fill: rgb(0, 0, 0); fill-opacity: 1; white-space: pre;">little text</text></g><g class="textpoint" transform="translate(0,3)"><text x="798.86" y="363.7" text-anchor="middle" style="font-family: 'Open Sans', verdana, arial, sans-serif; font-size: 12px; fill: rgb(0, 0, 0); fill-opacity: 1; white-space: pre;">simple lists</text></g><g class="textpoint" transform="translate(0,3)"><text x="698.68" y="299.54" text-anchor="middle" style="font-family: 'Open Sans', verdana, arial, sans-serif; font-size: 12px; fill: rgb(0, 0, 0); fill-opacity: 1; white-space: pre;">simple titles</text></g><g class="textpoint" transform="translate(0,3)"><text x="347.97" y="269.39" text-anchor="middle" style="font-family: 'Open Sans', verdana, arial, sans-serif; font-size: 12px; fill: rgb(0, 0, 0); fill-opacity: 1; white-space: pre;">gloom-ish portraits</text></g><g class="textpoint" transform="translate(0,3)"><text x="96.58" y="637" text-anchor="middle" style="font-family: 'Open Sans', verdana, arial, sans-serif; font-size: 12px; fill: rgb(0, 0, 0); fill-opacity: 1; white-space: pre;">abstract POV stearing</text></g><g class="textpoint" transform="translate(0,3)"><text x="325.1" y="527.6" text-anchor="middle" style="font-family: 'Open Sans', verdana, arial, sans-serif; font-size: 12px; fill: rgb(0, 0, 0); fill-opacity: 1; white-space: pre;">warehouse action</text></g><g class="textpoint" transform="translate(0,3)"><text x="400.03" y="540.47" text-anchor="middle" style="font-family: 'Open Sans', verdana, arial, sans-serif; font-size: 12px; fill: rgb(0, 0, 0); fill-opacity: 1; white-space: pre;">HUDs with graphics</text></g><g class="textpoint" transform="translate(0,3)"><text x="290.65" y="585.42" text-anchor="middle" style="font-family: 'Open Sans', verdana, arial, sans-serif; font-size: 12px; fill: rgb(0, 0, 0); fill-opacity: 1; white-space: pre;">isometric landscapes</text></g><g class="textpoint" transform="translate(0,3)"><text x="271.19" y="353.93" text-anchor="middle" style="font-family: 'Open Sans', verdana, arial, sans-serif; font-size: 12px; fill: rgb(0, 0, 0); fill-opacity: 1; white-space: pre;">sci-fi action titles</text></g><g class="textpoint" transform="translate(0,3)"><text x="229.52" y="390.32" text-anchor="middle" style="font-family: 'Open Sans', verdana, arial, sans-serif; font-size: 12px; fill: rgb(0, 0, 0); fill-opacity: 1; white-space: pre;">weirdcore</text></g><g class="textpoint" transform="translate(0,3)"><text x="545.98" y="435.19" text-anchor="middle" style="font-family: 'Open Sans', verdana, arial, sans-serif; font-size: 12px; fill: rgb(0, 0, 0); fill-opacity: 1; white-space: pre;">low-res action</text></g><g class="textpoint" transform="translate(0,3)"><text x="94.06" y="442.78" text-anchor="middle" style="font-family: 'Open Sans', verdana, arial, sans-serif; font-size: 12px; fill: rgb(0, 0, 0); fill-opacity: 1; white-space: pre;">POV racing</text></g><g class="textpoint" transform="translate(0,3)"><text x="834.3" y="449.06" text-anchor="middle" style="font-family: 'Open Sans', verdana, arial, sans-serif; font-size: 12px; fill: rgb(0, 0, 0); fill-opacity: 1; white-space: pre;">simple text</text></g><g class="textpoint" transform="translate(0,3)"><text x="349.26" y="85.35" text-anchor="middle" style="font-family: 'Open Sans', verdana, arial, sans-serif; font-size: 12px; fill: rgb(0, 0, 0); fill-opacity: 1; white-space: pre;">sports on green</text></g><g class="textpoint" transform="translate(0,3)"><text x="524.23" y="300.1" text-anchor="middle" style="font-family: 'Open Sans', verdana, arial, sans-serif; font-size: 12px; fill: rgb(0, 0, 0); fill-opacity: 1; white-space: pre;">simple decorative titles</text></g><g class="textpoint" transform="translate(0,3)"><text x="269.32" y="80.74" text-anchor="middle" style="font-family: 'Open Sans', verdana, arial, sans-serif; font-size: 12px; fill: rgb(0, 0, 0); fill-opacity: 1; white-space: pre;">boxing</text></g></g></g></g></g></g><path class="xlines-above crisp" d="M0,0" style="fill: none;"/><path class="ylines-above crisp" d="M0,0" style="fill: none;"/><g class="overlines-above"/><g class="xaxislayer-above"/><g class="yaxislayer-above"/><g class="overaxes-above"/></g></g><g class="polarlayer"/><g class="smithlayer"/><g class="ternarylayer"/><g class="geolayer"/><g class="funnelarealayer"/><g class="pielayer"/><g class="iciclelayer"/><g class="treemaplayer"/><g class="sunburstlayer"/><g class="glimages"/><defs id="topdefs-8211f4"><g class="clips"/></defs><g class="layer-above"><g class="imagelayer"/><g class="shapelayer"/></g><g class="infolayer"><g class="cbcoloraxis colorbar" transform=""><rect class="cbbg" x="1022" y="0" width="77.59375" height="800" style="fill: rgb(0, 0, 0); fill-opacity: 0; stroke: rgb(68, 68, 68); stroke-opacity: 1; stroke-width: 0;"/><g class="cbfills" transform="translate(0,34)"><rect class="cbfill gradient_filled" style="fill: url('#g8211f4-cbcoloraxis');" x="1032" y="0" width="30" height="756"/></g><g class="cblines" transform="translate(0,34)"/><g class="cbaxis crisp" transform=""><g class="ycbcoloraxistick"><text text-anchor="start" x="1064.9" y="4.199999999999999" transform="translate(0,790)" style="font-family: 'Open Sans', verdana, arial, sans-serif; font-size: 12px; fill: rgb(42, 63, 95); fill-opacity: 1; white-space: pre; opacity: 1;">1983</text></g><g class="ycbcoloraxistick"><text text-anchor="start" x="1064.9" y="4.199999999999999" style="font-family: 'Open Sans', verdana, arial, sans-serif; font-size: 12px; fill: rgb(42, 63, 95); fill-opacity: 1; white-space: pre; opacity: 1;" transform="translate(0,638.8)">1984</text></g><g class="ycbcoloraxistick"><text text-anchor="start" x="1064.9" y="4.199999999999999" style="font-family: 'Open Sans', verdana, arial, sans-serif; font-size: 12px; fill: rgb(42, 63, 95); fill-opacity: 1; white-space: pre; opacity: 1;" transform="translate(0,487.6)">1985</text></g><g class="ycbcoloraxistick"><text text-anchor="start" x="1064.9" y="4.199999999999999" style="font-family: 'Open Sans', verdana, arial, sans-serif; font-size: 12px; fill: rgb(42, 63, 95); fill-opacity: 1; white-space: pre; opacity: 1;" transform="translate(0,336.4)">1986</text></g><g class="ycbcoloraxistick"><text text-anchor="start" x="1064.9" y="4.199999999999999" style="font-family: 'Open Sans', verdana, arial, sans-serif; font-size: 12px; fill: rgb(42, 63, 95); fill-opacity: 1; white-space: pre; opacity: 1;" transform="translate(0,185.2)">1987</text></g><g class="ycbcoloraxistick"><text text-anchor="start" x="1064.9" y="4.199999999999999" style="font-family: 'Open Sans', verdana, arial, sans-serif; font-size: 12px; fill: rgb(42, 63, 95); fill-opacity: 1; white-space: pre; opacity: 1;" transform="translate(0,33.999999999999986)">1988</text></g></g><g class="cbtitleunshift" transform=""><g class="cbtitle" transform=""><text class="ycbcoloraxistitle" x="1032.04" y="23.5" text-anchor="start" style="opacity: 1; font-family: 'Open Sans', verdana, arial, sans-serif; font-size: 14px; fill: rgb(42, 63, 95); fill-opacity: 1; white-space: pre;">year</text></g></g><rect class="cboutline" x="1032" y="34" width="30" height="756" style="stroke: rgb(68, 68, 68); stroke-opacity: 1; fill: none; stroke-width: 0;"/></g><g class="g-gtitle"/></g></svg>